<svg xmlns="http://www.w3.org/2000/svg" xmlns:xlink="http://www.w3.org/1999/xlink" width="24" height="24" viewBox="0 0 24 24"><defs><path id="b43pa" d="M36.156 19.172h-4.3v-4.304a.844.844 0 1 0-1.688 0v4.304h-4.324a.844.844 0 1 0 0 1.69h4.324v4.28a.844.844 0 1 0 1.687 0v-4.28h4.301a.844.844 0 1 0 0-1.69zm2.127 8.11a10.254 10.254 0 0 1-3.277 2.21c-1.27.539-2.62.81-4.011.81-1.392 0-2.74-.271-4.01-.808a10.318 10.318 0 0 1-3.278-2.209 10.254 10.254 0 0 1-2.209-3.277 10.228 10.228 0 0 1-.81-4.013c0-1.392.271-2.74.808-4.01a10.319 10.319 0 0 1 2.209-3.278 10.254 10.254 0 0 1 3.277-2.209 10.228 10.228 0 0 1 4.013-.81c1.392 0 2.74.271 4.01.808a10.318 10.318 0 0 1 3.278 2.209c.946.946 1.691 2.05 2.209 3.277.539 1.272.81 2.621.81 4.013a10.248 10.248 0 0 1-3.02 7.288zM31 8c-6.628 0-12 5.372-12 12s5.372 12 12 12 12-5.372 12-12S37.628 8 31 8z"/></defs><g><g transform="translate(-19 -8)"><use fill="#fff" xlink:href="#b43pa"/></g></g></svg>